# xmcd CD database file
#
# Track frame offsets:
#	150
#	31295
#	52317
#	70872
#	100097
#	123092
#	142615
#	184687
#	207292
#
# Disc length: 3134 seconds
#
# Revision: 0
# Processed by: cddbd v1.4PL0 Copyright (c) Steve Scherf et al.
# Submitted via: CDex 1.50beta10
#
DISCID=770c3c09
DTITLE=Houston Person - Island episode
DYEAR=1973
DGENRE=Jazz
TTITLE0=Nemo
TTITLE1=Let me be the one
TTITLE2=Don't misunderstand
TTITLE3=St. Thomas
TTITLE4=Theme from Baxter
TTITLE5=With you
TTITLE6=Montuno merengue
TTITLE7=Waking up alone
TTITLE8=St. Thomas (take 2)
EXTD=YEAR: 1973
EXTT0=
EXTT1=
EXTT2=
EXTT3=
EXTT4=
EXTT5=
EXTT6=
EXTT7=
EXTT8=
PLAYORDER=
